<svg width="30" height="30" viewBox="0 0 30 30" fill="none" xmlns="http://www.w3.org/2000/svg">
<mask id="mask0_36_1378" style="mask-type:alpha" maskUnits="userSpaceOnUse" x="0" y="0" width="30" height="30">
<rect width="30" height="30" fill="#D9D9D9"/>
</mask>
<g mask="url(#mask0_36_1378)">
<path d="M8.75 26.25C8.0625 26.25 7.47396 26.0052 6.98438 25.5156C6.49479 25.026 6.25 24.4375 6.25 23.75V7.5H5V5H11.25V3.75H18.75V5H25V7.5H23.75V23.75C23.75 24.4375 23.5052 25.026 23.0156 25.5156C22.526 26.0052 21.9375 26.25 21.25 26.25H8.75ZM21.25 7.5H8.75V23.75H21.25V7.5ZM11.25 21.25H13.75V10H11.25V21.25ZM16.25 21.25H18.75V10H16.25V21.25Z" fill="#F50000"/>
</g>
</svg>
