<svg width="24" height="24" viewBox="0 0 24 24" fill="none" xmlns="http://www.w3.org/2000/svg">
<path opacity="0.4" d="M0 5.3364C0 2.3952 2.43629 0 5.42944 0H11.3828C14.3698 0 16.8 2.388 16.8 5.3244V18.6636C16.8 21.606 14.3637 24 11.3693 24H5.41845C2.43018 24 0 21.612 0 18.6756V17.5476V5.3364Z" fill="black"/>
<path d="M23.7347 11.3474L20.3197 7.85661C19.9668 7.49661 19.3988 7.49661 19.047 7.85901C18.6964 8.22141 18.6976 8.80581 19.0493 9.16581L20.9204 11.0774H19.1265H9.0581C8.56141 11.0774 8.1582 11.4914 8.1582 12.0014C8.1582 12.5126 8.56141 12.9254 9.0581 12.9254H20.9204L19.0493 14.837C18.6976 15.197 18.6964 15.7814 19.047 16.1438C19.2235 16.325 19.4537 16.4162 19.6851 16.4162C19.9142 16.4162 20.1444 16.325 20.3197 16.1462L23.7347 12.6566C23.9041 12.4826 24 12.2474 24 12.0014C24 11.7566 23.9041 11.5214 23.7347 11.3474Z" fill="black"/>
</svg>
