<svg width="50" height="50" viewBox="0 0 50 50" fill="none" xmlns="http://www.w3.org/2000/svg">
<rect width="50" height="50" rx="25" fill="#6ACEED"/>
<path d="M25.0503 13C18.4635 13 13.103 18.1631 13.1006 24.5084C13.0991 26.5375 13.6503 28.5179 14.6955 30.2622L13 36.2258L19.3352 34.6255C21.0975 35.5474 23.0569 36.0282 25.0457 36.0268H25.0503C31.6372 36.0268 36.9977 30.863 37 24.5177C37.0015 21.4441 35.7597 18.551 33.503 16.3763C31.247 14.2008 28.247 13.0008 25.0503 13ZM25.0503 34.0828H25.0465C23.2643 34.0828 21.5161 33.6214 19.991 32.7497L19.6271 32.5422L15.8692 33.4914L16.8725 29.961L16.6364 29.5995C15.6446 28.0868 15.1166 26.3172 15.1174 24.5084C15.1197 19.2338 19.576 14.944 25.0542 14.944C27.7066 14.9448 30.2003 15.9412 32.0761 17.7489C33.952 19.5566 34.984 21.9605 34.9825 24.5169C34.9801 29.7915 30.5246 34.0828 25.0495 34.0828H25.0503ZM30.4983 26.9177C30.1995 26.7744 28.7316 26.0784 28.4575 25.9817C28.1843 25.8864 27.9853 25.8369 27.7863 26.1249C27.5881 26.4129 27.0152 27.0609 26.8418 27.2521C26.6668 27.4441 26.4926 27.4674 26.1938 27.3241C25.895 27.1801 24.9326 26.8766 23.793 25.8965C22.905 25.1347 22.3058 24.1933 22.1316 23.9045C21.9574 23.6173 22.113 23.4617 22.2625 23.3184C22.3964 23.1907 22.5613 22.9832 22.7099 22.8152C22.8586 22.6472 22.9081 22.5272 23.0088 22.3352C23.1079 22.144 23.0583 21.9752 22.9832 21.832C22.9081 21.6872 22.312 20.272 22.0619 19.6968C21.8204 19.1363 21.5742 19.2114 21.3907 19.2021C21.2165 19.1943 21.0183 19.192 20.8178 19.192C20.6204 19.192 20.296 19.264 20.0219 19.552C19.7486 19.84 18.9768 20.5352 18.9768 21.9504C18.9768 23.3664 20.0467 24.7337 20.1961 24.9257C20.3455 25.1169 22.3019 28.0224 25.2973 29.2689C26.0095 29.5639 26.5654 29.7412 26.9997 29.8743C27.7151 30.0934 28.3662 30.0617 28.8803 29.9881C29.4532 29.9053 30.647 29.2929 30.8947 28.6217C31.144 27.9504 31.144 27.3744 31.0697 27.2544C30.9969 27.1344 30.7972 27.0624 30.4983 26.9177Z" fill="white"/>
</svg>
